TITLE ""
FILE "DISC1Track03.mp3" MP3
  TRACK 01 AUDIO
    TITLE "DISC1Track03_01"
    INDEX 01 00:00:00
  TRACK 02 AUDIO
    TITLE "DISC1Track03_02"
    INDEX 01 00:01:10
  TRACK 03 AUDIO
    TITLE "DISC1Track03_03"
    INDEX 01 00:01:22
  TRACK 04 AUDIO
    TITLE "DISC1Track03_04"
    INDEX 01 00:03:63
  TRACK 05 AUDIO
    TITLE "DISC1Track03_05"
    INDEX 01 00:07:18
  TRACK 06 AUDIO
    TITLE "DISC1Track03_06"
    INDEX 01 00:10:20
  TRACK 07 AUDIO
    TITLE "DISC1Track03_07"
    INDEX 01 00:10:36
  TRACK 08 AUDIO
    TITLE "DISC1Track03_08"
    INDEX 01 00:13:36
  TRACK 09 AUDIO
    TITLE "DISC1Track03_09"
    INDEX 01 00:16:41
  TRACK 10 AUDIO
    TITLE "DISC1Track03_10"
    INDEX 01 00:19:12
  TRACK 11 AUDIO
    TITLE "DISC1Track03_11"
    INDEX 01 00:19:27
  TRACK 12 AUDIO
    TITLE "DISC1Track03_12"
    INDEX 01 00:22:65
  TRACK 13 AUDIO
    TITLE "DISC1Track03_13"
    INDEX 01 00:26:14
  TRACK 14 AUDIO
    TITLE "DISC1Track03_14"
    INDEX 01 00:29:08
  TRACK 15 AUDIO
    TITLE "DISC1Track03_15"
    INDEX 01 00:29:20
  TRACK 16 AUDIO
    TITLE "DISC1Track03_16"
    INDEX 01 00:32:01
  TRACK 17 AUDIO
    TITLE "DISC1Track03_17"
    INDEX 01 00:35:34
  TRACK 18 AUDIO
    TITLE "DISC1Track03_18"
    INDEX 01 00:38:32
  TRACK 19 AUDIO
    TITLE "DISC1Track03_19"
    INDEX 01 00:38:46
  TRACK 20 AUDIO
    TITLE "DISC1Track03_20"
    INDEX 01 00:42:73
  TRACK 21 AUDIO
    TITLE "DISC1Track03_21"
    INDEX 01 00:48:00
  TRACK 22 AUDIO
    TITLE "DISC1Track03_22"
    INDEX 01 00:52:40
  TRACK 23 AUDIO
    TITLE "DISC1Track03_23"
    INDEX 01 00:52:56
  TRACK 24 AUDIO
    TITLE "DISC1Track03_24"
    INDEX 01 00:56:15
  TRACK 25 AUDIO
    TITLE "DISC1Track03_25"
    INDEX 01 00:59:74
  TRACK 26 AUDIO
    TITLE "DISC1Track03_26"
    INDEX 01 01:03:28
  TRACK 27 AUDIO
    TITLE "DISC1Track03_27"
    INDEX 01 01:03:44
  TRACK 28 AUDIO
    TITLE "DISC1Track03_28"
    INDEX 01 01:05:61
  TRACK 29 AUDIO
    TITLE "DISC1Track03_29"
    INDEX 01 01:08:20
  TRACK 30 AUDIO
    TITLE "DISC1Track03_30"
    INDEX 01 01:10:21
  TRACK 31 AUDIO
    TITLE "DISC1Track03_31"
    INDEX 01 01:10:36
  TRACK 32 AUDIO
    TITLE "DISC1Track03_32"
    INDEX 01 01:13:41
  TRACK 33 AUDIO
    TITLE "DISC1Track03_33"
    INDEX 01 01:16:57
  TRACK 34 AUDIO
    TITLE "DISC1Track03_34"
    INDEX 01 01:19:35
  TRACK 35 AUDIO
    TITLE "DISC1Track03_35"
    INDEX 01 01:19:47
  TRACK 36 AUDIO
    TITLE "DISC1Track03_36"
    INDEX 01 01:22:49
  TRACK 37 AUDIO
    TITLE "DISC1Track03_37"
    INDEX 01 01:25:42
  TRACK 38 AUDIO
    TITLE "DISC1Track03_38"
    INDEX 01 01:27:74
  TRACK 39 AUDIO
    TITLE "DISC1Track03_39"
    INDEX 01 01:28:15
  TRACK 40 AUDIO
    TITLE "DISC1Track03_40"
    INDEX 01 01:30:10
  TRACK 41 AUDIO
    TITLE "DISC1Track03_41"
    INDEX 01 01:32:12
  TRACK 42 AUDIO
    TITLE "DISC1Track03_42"
    INDEX 01 01:34:02
  TRACK 43 AUDIO
    TITLE "DISC1Track03_43"
    INDEX 01 01:34:11
  TRACK 44 AUDIO
    TITLE "DISC1Track03_44"
    INDEX 01 01:36:40
  TRACK 45 AUDIO
    TITLE "DISC1Track03_45"
    INDEX 01 01:39:05
  TRACK 46 AUDIO
    TITLE "DISC1Track03_46"
    INDEX 01 01:41:13
  TRACK 47 AUDIO
    TITLE "DISC1Track03_47"
    INDEX 01 01:41:29
  TRACK 48 AUDIO
    TITLE "DISC1Track03_48"
    INDEX 01 01:43:04
  TRACK 49 AUDIO
    TITLE "DISC1Track03_49"
    INDEX 01 01:45:15
  TRACK 50 AUDIO
    TITLE "DISC1Track03_50"
    INDEX 01 01:46:67
